<mxfile host="app.diagrams.net" modified="2020-10-26T04:08:08.451Z" agent="5.0 (Macintosh; Intel Mac OS X 10_13_6) AppleWebKit/537.36 (KHTML, like Gecko) Chrome/86.0.4240.111 Safari/537.36" etag="2WACsAPSCrkS3tgrSosq" version="13.8.2" type="github">
  <diagram id="WAbl8uiZc49AJan4Hj4t" name="Page-1">
    <mxGraphModel dx="940" dy="540" grid="1" gridSize="10" guides="1" tooltips="1" connect="1" arrows="1" fold="1" page="1" pageScale="1" pageWidth="827" pageHeight="1169" math="0" shadow="0">
      <root>
        <mxCell id="0" />
        <mxCell id="1" parent="0" />
        <mxCell id="2AAt1BTq9ZNGe86nqeqy-3" value="" style="edgeStyle=orthogonalEdgeStyle;rounded=0;orthogonalLoop=1;jettySize=auto;html=1;" parent="1" source="2AAt1BTq9ZNGe86nqeqy-1" target="2AAt1BTq9ZNGe86nqeqy-2" edge="1">
          <mxGeometry relative="1" as="geometry" />
        </mxCell>
        <mxCell id="2AAt1BTq9ZNGe86nqeqy-1" value="" style="rounded=1;whiteSpace=wrap;html=1;" parent="1" vertex="1">
          <mxGeometry x="90" y="130" width="120" height="60" as="geometry" />
        </mxCell>
        <mxCell id="2AAt1BTq9ZNGe86nqeqy-2" value="" style="whiteSpace=wrap;html=1;rounded=1;direction=west;" parent="1" vertex="1">
          <mxGeometry x="290" y="130" width="120" height="60" as="geometry" />
        </mxCell>
        <mxCell id="p5NVpYK7XsMyxVKzatzZ-1" value="" style="ellipse;whiteSpace=wrap;html=1;" vertex="1" parent="1">
          <mxGeometry x="370" y="240" width="80" height="80" as="geometry" />
        </mxCell>
        <mxCell id="p5NVpYK7XsMyxVKzatzZ-2" value="" style="whiteSpace=wrap;html=1;rounded=0;glass=0;shadow=0;sketch=0;" vertex="1" parent="1">
          <mxGeometry x="520" y="90" width="120" height="60" as="geometry" />
        </mxCell>
        <mxCell id="p5NVpYK7XsMyxVKzatzZ-3" value="" style="rhombus;whiteSpace=wrap;html=1;rounded=0;sketch=0;shadow=1;direction=east;" vertex="1" parent="1">
          <mxGeometry x="580" y="230" width="80" height="80" as="geometry" />
        </mxCell>
      </root>
    </mxGraphModel>
  </diagram>
</mxfile>
